<svg width="32" height="32" viewBox="0 0 32 32" fill="none" xmlns="http://www.w3.org/2000/svg">
<rect width="32" height="32" rx="12" fill="#F5EFE6"/>
<path d="M18.4335 25.2116C18.4335 24.404 18.3476 23.6012 18.1759 22.8033C18.0041 22.0053 17.756 21.2409 17.4316 20.5103C18.2331 19.145 19.3256 18.049 20.7091 17.2222C22.0925 16.3953 23.6239 15.9819 25.3032 15.9819C25.7039 15.9819 26.0903 16.006 26.4624 16.054C26.8345 16.1021 27.2114 16.1742 27.5931 16.2704C25.9711 16.6934 24.578 17.4962 23.414 18.6787C22.25 19.8613 21.4485 21.2698 21.0096 22.9042H26.4394C27.0765 22.9042 27.5931 23.4207 27.5931 24.0579V24.0579C27.5931 24.6951 27.0765 25.2116 26.4394 25.2116H18.4335Z" fill="#6F604F"/>
<path d="M11.2788 22.9042H5.84902C5.21185 22.9042 4.69531 23.4207 4.69531 24.0579C4.69531 24.6951 5.21185 25.2116 5.84902 25.2116H16.1448C16.1448 22.635 15.2575 20.4526 13.4828 18.6643C11.7081 16.8761 9.54226 15.9819 6.98521 15.9819C6.58448 15.9819 6.19806 16.006 5.82595 16.054C5.45384 16.1021 5.07696 16.1742 4.69531 16.2704C6.31732 16.6934 7.71512 17.4962 8.88869 18.6787C10.0623 19.8613 10.859 21.2698 11.2788 22.9042Z" fill="#5D3E1B"/>
<path d="M16.8325 14.7995C16.3745 15.8955 16.1455 17.0685 16.1455 18.3183C16.6989 17.5876 17.3239 16.9291 18.0204 16.3426C18.7169 15.7561 19.4849 15.261 20.3246 14.8572C20.7635 13.6458 21.3836 12.5498 22.1851 11.5691C22.9866 10.5884 23.9216 9.76162 24.9902 9.08862C23.769 9.12708 22.6192 9.39628 21.5411 9.89622C20.4629 10.3962 19.5231 11.0644 18.7216 11.9008C17.9202 12.7372 17.2905 13.7035 16.8325 14.7995Z" fill="#1A4D2E"/>
<path d="M13.3689 15.6647C13.5979 15.8186 13.8269 15.982 14.0558 16.1551C14.1703 15.4821 14.3516 14.8235 14.5997 14.1793C14.8478 13.5352 15.1435 12.9247 15.487 12.3478C14.9909 11.0787 14.2801 9.95868 13.3546 8.98764C12.4291 8.0166 11.3366 7.27149 10.0771 6.75232C10.9168 7.82912 11.5656 9.02129 12.0236 10.3288C12.4815 11.6364 12.7105 13.0208 12.7105 14.4822C12.7105 14.5976 12.701 14.7177 12.6819 14.8427C12.6628 14.9677 12.6533 15.0879 12.6533 15.2033C12.9014 15.3571 13.1399 15.5109 13.3689 15.6647Z" fill="#4F6F52"/>
</svg>
