<svg class="logo" width="300" height="50" viewBox="0 0 300 50" fill="none" xmlns="http://www.w3.org/2000/svg">
<path d="M275.35 36.7703C275.35 29.0418 280.451 23.5864 287.826 23.5864C294.646 23.5864 299.293 27.3749 299.949 33.3859H293.787C293.08 30.5572 291.009 29.0923 288.079 29.0923C284.139 29.0923 281.512 32.0726 281.512 36.7703C281.512 41.468 283.937 44.3978 287.877 44.3978C290.958 44.3978 293.13 42.8824 293.787 40.1547H300C299.242 45.9637 294.393 49.9542 287.877 49.9542C280.3 49.9542 275.35 44.7009 275.35 36.7703Z" fill="#171717"/>
<path d="M267.871 19.3433C265.75 19.3433 264.083 17.6764 264.083 15.6054C264.083 13.5343 265.75 11.9179 267.871 11.9179C269.892 11.9179 271.559 13.5343 271.559 15.6054C271.559 17.6764 269.892 19.3433 267.871 19.3433ZM264.79 49.2975V24.3441H270.953V49.2975H264.79Z" fill="#171717"/>
<path d="M256.615 49.2975H250.452V29.4964H245.653V24.3441H250.452V16.5651H256.615V24.3441H261.464V29.4964H256.615V49.2975Z" fill="#171717"/>
<path d="M223.332 41.7206H229.192C229.242 43.8926 230.858 45.2565 233.687 45.2565C236.566 45.2565 238.132 44.0947 238.132 42.2762C238.132 41.0134 237.476 40.1042 235.253 39.599L230.757 38.5383C226.262 37.528 224.09 35.4065 224.09 31.4159C224.09 26.5162 228.232 23.5864 233.99 23.5864C239.597 23.5864 243.386 26.8193 243.436 31.6685H237.577C237.526 29.547 236.112 28.1831 233.738 28.1831C231.313 28.1831 229.899 29.2944 229.899 31.1634C229.899 32.5777 231.01 33.487 233.132 33.9921L237.627 35.0529C241.82 36.0126 243.941 37.9321 243.941 41.7711C243.941 46.8224 239.648 49.9542 233.485 49.9542C227.272 49.9542 223.332 46.6204 223.332 41.7206Z" fill="#171717"/>
<path d="M205.509 49.9542C200.205 49.9542 196.973 46.8729 196.973 42.1752C196.973 37.5785 200.307 34.6993 206.217 34.2447L213.692 33.689V33.1334C213.692 29.749 211.672 28.3852 208.54 28.3852C204.903 28.3852 202.883 29.9005 202.883 32.5272H197.629C197.629 27.1223 202.074 23.5864 208.843 23.5864C215.561 23.5864 219.704 27.2234 219.704 34.1436V49.2975H214.299L213.844 45.6101C212.783 48.1863 209.399 49.9542 205.509 49.9542ZM207.53 45.307C211.318 45.307 213.743 43.0339 213.743 39.1949V37.8816L208.54 38.2857C204.701 38.6393 203.236 39.9021 203.236 41.9226C203.236 44.1957 204.752 45.307 207.53 45.307Z" fill="#171717"/>
<path d="M190.056 49.2975H183.893V29.4964H179.095V24.3441H183.893V16.5651H190.056V24.3441H194.905V29.4964H190.056V49.2975Z" fill="#171717"/>
<path d="M158.493 49.2975H152.33V24.3441H158.038L158.543 27.577C160.109 25.0513 163.14 23.5864 166.524 23.5864C172.788 23.5864 176.021 27.4759 176.021 33.9416V49.2975H169.858V35.4065C169.858 31.2139 167.787 29.1934 164.605 29.1934C160.816 29.1934 158.493 31.82 158.493 35.8611V49.2975Z" fill="#171717"/>
<path d="M132.587 49.9542C127.283 49.9542 124.05 46.8729 124.05 42.1752C124.05 37.5785 127.384 34.6993 133.294 34.2447L140.77 33.689V33.1334C140.77 29.749 138.749 28.3852 135.617 28.3852C131.98 28.3852 129.96 29.9005 129.96 32.5272H124.706C124.706 27.1223 129.152 23.5864 135.92 23.5864C142.639 23.5864 146.781 27.2234 146.781 34.1436V49.2975H141.376L140.921 45.6101C139.86 48.1863 136.476 49.9542 132.587 49.9542ZM134.607 45.307C138.395 45.307 140.82 43.0339 140.82 39.1949V37.8816L135.617 38.2857C131.778 38.6393 130.313 39.9021 130.313 41.9226C130.313 44.1957 131.829 45.307 134.607 45.307Z" fill="#171717"/>
<path d="M119.201 49.2975H113.089V11.7159H119.201V49.2975Z" fill="#171717"/>
<path d="M96.7399 36.5683H88.6073V49.2976H82.1416V12.3726H96.7399C104.165 12.3726 108.964 17.2218 108.964 24.4452C108.964 31.5675 104.115 36.5683 96.7399 36.5683ZM95.477 18.131H88.6073V30.8098H95.376C99.8211 30.8098 102.195 28.4357 102.195 24.3946C102.195 20.3536 99.7706 18.131 95.477 18.131Z" fill="#171717"/>
<path d="M37.0007 49.7075C37.0007 47.5326 36.7694 45.3707 36.3069 43.2217C35.8444 41.0727 35.1764 39.0143 34.3027 37.0466C36.4611 33.37 39.4032 30.4184 43.1289 28.1917C46.8547 25.965 50.9787 24.8517 55.501 24.8517C56.5802 24.8517 57.6208 24.9164 58.6229 25.0459C59.625 25.1753 60.6399 25.3695 61.6677 25.6284C57.2996 26.7677 53.5482 28.9296 50.4134 32.1142C47.2786 35.2989 45.1203 39.092 43.9383 43.4936H58.5608C60.2767 43.4936 61.6677 44.8846 61.6677 46.6005V46.6005C61.6677 48.3165 60.2767 49.7075 58.5608 49.7075H37.0007Z" fill="#6F604F"/>
<path d="M17.7294 43.4936H3.10698C1.39104 43.4936 0 44.8846 0 46.6005C0 48.3165 1.39104 49.7075 3.10698 49.7075H30.8338C30.8338 42.7686 28.4442 36.8912 23.6649 32.0754C18.8857 27.2596 13.053 24.8517 6.16676 24.8517C5.08758 24.8517 4.04694 24.9164 3.04484 25.0459C2.04274 25.1753 1.02779 25.3695 0 25.6284C4.36812 26.7677 8.13242 28.9296 11.2929 32.1142C14.4533 35.2989 16.5989 39.092 17.7294 43.4936Z" fill="#5D3E1B"/>
<path d="M32.684 21.667C31.4507 24.6186 30.834 27.7774 30.834 31.1433C32.3243 29.1755 34.0073 27.402 35.883 25.8226C37.7587 24.2432 39.8272 22.9098 42.0883 21.8224C43.2703 18.56 44.9405 15.6084 47.0988 12.9675C49.2572 10.3265 51.7753 8.09988 54.6531 6.28748C51.3642 6.39104 48.2679 7.116 45.3644 8.46236C42.4609 9.80872 39.93 11.6082 37.7716 13.8607C35.6132 16.1133 33.9174 18.7154 32.684 21.667Z" fill="#1A4D2E"/>
<path d="M23.3569 23.9973C23.9736 24.4115 24.5903 24.8517 25.2069 25.3177C25.5153 23.5053 26.0035 21.7318 26.6715 19.997C27.3396 18.2623 28.1362 16.6182 29.0612 15.0647C27.725 11.647 25.8108 8.63066 23.3184 6.01562C20.826 3.40058 17.8839 1.39399 14.4922 -0.00415039C16.7533 2.8957 18.5006 6.10624 19.7339 9.62748C20.9673 13.1487 21.584 16.8771 21.584 20.8126C21.584 21.1233 21.5583 21.4469 21.5069 21.7835C21.4555 22.1201 21.4298 22.4438 21.4298 22.7545C22.0979 23.1687 22.7402 23.583 23.3569 23.9973Z" fill="#4F6F52"/>
</svg>
